<svg xmlns:svg="http://www.w3.org/2000/svg" xmlns="http://www.w3.org/2000/svg" xmlns:xlink="http://www.w3.org/1999/xlink" xmlns:inkscape="http://www.inkscape.org/namespaces/inkscape" width="2376.856201171875" height="1024.0" id="svgoverlay" version="1.1">
  <defs id="defs4">
    <clipPath id="edgeclip">
      <path id="clippath" d="M1100.045166 856.174683 L1087.321899 887.895996, 1082.736450 904.504517, 1075.986450 893.631042, 1058.034058 886.756348, 1048.366943 886.284851, 1040.866333 887.939514, 1032.981445 892.420166, 1026.611328 897.548218, 1023.516602 900.317566, 1020.760864 900.191772, 1012.839905 901.565063, 1005.658203 904.759033, 1001.373230 907.305115, 999.816528 908.527832, 997.676941 909.567871, 995.472107 911.533630, 993.504700 913.181946, 990.350708 916.038147, 987.009521 919.208313, 983.925720 920.347534, 978.250122 925.062988, 973.393188 927.006653, 968.798523 929.357849, 964.480652 931.860779, 960.704651 933.450195, 957.950745 935.253357, 954.913330 935.320984, 952.546448 937.192505, 949.439026 939.225159, 945.724670 941.896851, 942.792786 945.296265, 939.486938 948.098022, 935.765991 950.812378, 932.273682 952.190613, 926.610107 956.484924, 921.075806 959.836914, 914.221619 961.797852, 908.127197 963.373779, 903.435730 963.438660, 901.137573 963.929077, 898.769531 964.644897, 895.904968 966.232849, 892.972717 968.078308, 889.481201 970.532410, 886.546692 972.230286, 882.788574 974.506287, 879.357117 976.952942, 875.464783 980.251282, 869.944946 983.793030, 862.509338 987.284546, 855.062134 989.184875, 846.082031 989.363159, 839.337158 989.349854, 834.622009 989.639404, 830.339050 989.332153, 825.415344 989.305847, 822.314514 990.458252, 819.443787 991.248596, 817.631897 992.183716, 815.553284 992.353027, 813.237549 991.415955, 811.138184 991.798401, 811.237183 992.783325, 809.654602 992.638306, 807.295044 992.370483, 804.744690 991.934937, 801.571289 992.354248, 798.372070 991.458923, 796.016907 993.687622, 792.455811 996.071655, 787.534912 999.579285, 784.864441 1001.812805, 781.583618 1002.590454, 776.428650 1003.843323, 770.335999 1005.726379, 763.993652 1006.282593, 758.642395 1007.841553, 752.566772 1008.970459, 748.195435 1009.878967, 744.293152 1010.738342, 738.965881 1011.301086, 733.804016 1013.067322, 731.511902 1013.740295, 728.892273 1013.712219, 724.149597 1013.939331, 720.379028 1013.451782, 719.232971 1013.647766, 717.087158 1013.970398, 713.186340 1013.791504, 711.662598 1014.721863, 709.208435 1015.047180, 706.490234 1015.818665, 705.152039 1016.613831, 704.296936 1017.344727, 703.489502 1018.052612, 702.808411 1017.366821, 697.429688 1018.650879, 693.086731 1020.016296, 687.294922 1020.734558, 682.313782 1021.407043, 677.878540 1022.070740, 673.903748 1022.865417, 670.471313 1023.871033, 661.321350 1024.000000, 659.110352 1022.216858, 655.919250 1021.614197, 652.761292 1021.079773, 646.738342 1021.201355, 644.161926 1021.535645, 640.179993 1020.163147, 635.750366 1020.210693, 631.659729 1019.704956, 630.048584 1020.250793, 628.180237 1019.573242, 623.748901 1019.648010, 619.363525 1018.619202, 614.979736 1018.393921, 614.304504 1019.153992, 611.592224 1019.131104, 609.858826 1019.988281, 607.578613 1019.739563, 603.016785 1018.937927, 598.597717 1018.659424, 595.488831 1019.681580, 591.468994 1018.871155, 588.665588 1019.795715, 584.535645 1019.087402, 579.889954 1020.387573, 575.664978 1020.149841, 572.684570 1019.253357, 569.248291 1020.064331, 565.797974 1019.343323, 561.423462 1018.911194, 557.897278 1019.833801, 552.835754 1019.515381, 547.775208 1019.040527, 543.245605 1019.993469, 538.271973 1018.860229, 533.608948 1017.909607, 528.691711 1016.952576, 523.345703 1015.865417, 518.685669 1014.555908, 514.362488 1013.399963, 510.071625 1011.900757, 505.406403 1009.766602, 500.931122 1007.460083, 498.485657 1006.132812, 497.802277 1004.666382, 495.780365 1003.952515, 493.915253 1003.177368, 491.834961 1001.190186, 488.934875 998.020630, 485.108337 995.675781, 481.071655 993.280762, 478.316895 989.831909, 474.897827 987.700684, 471.062286 984.888855, 466.834290 980.697937, 463.109985 977.311584, 460.472015 973.868469, 457.113220 972.451599, 453.596466 971.562561, 447.294708 968.534424, 446.618622 972.623596, 444.777832 968.291382, 438.910858 965.101379, 435.931213 963.368530, 435.292725 963.478455, 434.014038 963.100403, 431.974579 962.124939, 430.036896 961.146362, 428.428864 959.784302, 426.454163 959.408630, 418.602753 956.229126, 415.445770 955.101501, 413.420410 952.708130, 408.887268 951.287231, 406.394470 949.208557, 404.870300 943.760681, 402.322327 947.901062, 401.825287 946.651001, 400.081573 945.009460, 396.213379 943.773193, 392.944855 942.253906, 388.942627 941.598022, 385.551514 941.406311, 381.575226 941.205139, 378.607422 942.102356, 376.306519 941.054504, 373.889130 939.492859, 370.771851 937.755676, 364.860565 934.007080, 361.869324 933.100342, 358.418823 932.631226, 355.744202 932.565735, 353.631012 932.092834, 350.129272 932.245911, 348.191803 931.708313, 345.279633 931.530334, 343.272675 930.136963, 338.419556 928.594910, 335.444702 928.562073, 332.690491 928.155823, 328.123779 926.929749, 323.371826 925.869263, 319.906006 924.541870, 316.682037 923.190735, 313.015686 920.151123, 308.057281 917.150330, 307.287109 918.425964, 305.334259 917.426514, 302.996918 915.207031, 299.517242 913.601074, 297.053528 911.560913, 294.498718 911.312256, 293.655426 909.723083, 290.588928 907.948425, 286.664581 907.705688, 283.055267 905.256592, 279.474121 903.441223, 277.029724 901.663513, 274.166809 899.863770, 271.026794 898.612183, 267.426636 896.640625, 265.628479 894.082947, 263.317413 893.539551, 260.984070 891.453247, 258.848175 890.457153, 257.711700 888.385071, 255.438553 883.608398, 253.134430 883.342712, 251.657043 880.937256, 249.424606 877.507874, 246.812561 874.892456, 243.814331 872.025879, 240.990128 871.959595, 238.753128 869.544067, 237.770996 867.757568, 236.592773 865.488098, 232.501633 861.762878, 230.190735 860.583862, 228.620453 856.848083, 225.399796 853.035950, 223.297256 850.218933, 220.420380 846.369568, 217.702484 842.951050, 217.282639 838.987061, 212.230576 838.277100, 208.968842 836.953247, 209.055176 835.572815, 207.019592 834.468628, 208.791580 831.795837, 205.399567 831.131592, 205.751984 828.880066, 203.694809 827.169800, 204.912781 824.242920, 201.814697 823.384033, 202.460968 820.858032, 201.015717 817.067322, 201.130219 813.835327, 199.331223 808.114502, 198.086243 803.209351, 197.474594 797.374207, 195.813309 793.312378, 195.757767 790.129700, 193.051193 784.734070, 191.473480 779.692261, 190.074646 773.984131, 187.517273 767.622925, 186.461914 762.179077, 185.156937 755.988647, 185.334106 750.748779, 184.102448 741.813965, 183.324951 733.512329, 182.257324 723.609863, 179.862183 719.939941, 179.657257 713.735779, 178.056152 703.213501, 176.756699 695.348389, 175.158340 685.714539, 173.093567 673.734558, 171.377396 662.954773, 169.618347 656.259888, 166.893982 645.137512, 164.501038 634.209106, 162.768234 624.080750, 160.466751 620.131226, 159.083893 617.253601, 158.792526 614.987061, 154.468399 608.578918, 149.863174 601.427612, 145.367966 594.108459, 142.860901 590.584351, 140.057617 585.765625, 135.025986 581.673462, 131.258926 580.503052, 127.776764 576.651367, 125.337593 573.304688, 123.748001 570.000671, 121.419899 565.914551, 119.255463 562.220947, 116.796135 559.514343, 116.583786 556.673096, 114.737625 553.741455, 112.862747 553.021484, 112.648216 551.523926, 111.640503 548.867249, 109.583328 545.520447, 107.088715 544.020142, 107.225464 542.381714, 104.205360 539.322510, 101.041672 535.671509, 98.807434 532.740967, 95.185097 531.651855, 94.372803 528.547241, 94.090942 524.549072, 90.844238 521.119202, 88.198143 520.175903, 88.424088 518.000244, 86.529999 517.713013, 86.273056 515.967773, 84.499641 513.900391, 84.399124 511.573242, 82.523201 508.487488, 80.859909 507.537964, 79.670654 504.727600, 79.628242 501.706604, 78.123947 499.372864, 77.291588 496.502258, 75.273117 493.495911, 73.431709 491.748657, 72.800667 488.790344, 71.418182 486.610962, 70.050537 483.827942, 69.698692 480.953674, 69.488434 478.573364, 69.284172 476.270508, 69.109489 474.679504, 68.815453 472.548645, 66.004562 470.820923, 65.492668 468.292969, 64.437317 465.622314, 61.582584 464.673950, 60.040726 461.973877, 56.823116 460.997498, 54.959648 456.921082, 52.045101 452.866028, 48.803432 449.084778, 46.486176 445.360291, 45.231503 442.450500, 43.627544 441.356384, 45.608646 439.169861, 45.055195 434.161987, 42.295467 431.922729, 40.187702 431.129517, 40.174957 429.808777, 38.693104 428.351746, 38.013275 427.075073, 35.444492 425.926819, 32.924778 424.353394, 30.766806 422.910828, 28.992250 421.142639, 27.097021 415.307861, 25.870686 412.090515, 24.840719 408.711121, 24.056856 405.330017, 23.408314 401.917358, 22.804085 398.336365, 22.405830 394.724304, 20.164362 392.513977, 18.090452 390.503723, 16.793175 389.522095, 17.550695 387.401367, 16.441708 385.412231, 17.991934 383.166565, 17.432209 381.089966, 16.956928 380.088013, 18.649986 379.833557, 20.188231 376.445496, 18.909023 374.081177, 18.803848 371.254456, 18.014185 369.080994, 17.899122 366.623047, 15.790215 364.756104, 12.950035 362.765808, 13.438249 362.216736, 13.558448 360.782104, 8.976900 356.949829, 8.781101 354.997437, 8.571894 353.266907, 12.876907 347.572083, 10.516382 346.253540, 11.393722 345.344421, 10.957809 343.636536, 11.674630 341.249451, 12.611594 337.855652, 10.077997 335.354492, 7.728122 332.816223, 8.329594 329.425171, 8.761037 325.781799, 9.209501 322.022766, 7.292495 321.059937, 7.451303 318.783325, 5.480854 317.607910, 6.368179 317.278076, 7.681336 316.239502, 7.159934 314.018433, 7.214518 311.557312, 8.591483 308.496338, 6.513293 307.478271, 7.517298 305.496765, 5.941015 305.298584, 5.830706 303.993774, 5.598296 301.619690, 7.089089 299.641235, 4.966870 297.760071, 4.751956 295.234253, 3.230923 292.524231, 2.204381 289.935242, 1.247922 287.209900, 0.325983 284.706604, 0.000000 282.145264, 2.464463 281.554138, 4.710115 283.271179, 7.123322 284.819641, 9.437537 285.301331, 11.899433 287.078430, 13.892514 288.255798, 14.882826 289.883545, 16.487448 290.726440, 17.395311 292.589233, 19.426146 294.111694, 22.041618 295.962341, 24.654430 298.022400, 27.379547 299.919495, 30.271648 301.756897, 33.437908 303.303284, 36.973896 305.071777, 40.452065 306.794556, 43.443539 308.127625, 45.262218 311.271362, 47.573105 310.231018, 48.863628 312.654907, 50.949047 311.791443, 51.913395 313.756409, 54.223618 313.916626, 56.413258 315.228882, 58.865360 317.204407, 61.390491 319.377197, 64.006821 321.562927, 66.498764 323.838562, 69.157600 325.928284, 72.258820 328.274963, 79.685303 329.429565, 80.787064 328.899475, 82.620674 330.524048, 83.813347 331.387207, 84.588173 332.071533, 84.848351 333.859192, 85.955345 335.892212, 86.994820 338.133301, 87.953278 339.046204, 89.932663 340.869568, 93.297478 340.429016, 95.515839 339.299927, 97.548576 339.678589, 99.290512 340.912476, 101.703911 341.524414, 106.444832 342.207764, 113.265945 343.454407, 119.407898 343.813293, 124.116013 344.344299, 128.707642 342.807190, 133.822281 341.422852, 138.744659 340.291565, 142.661301 338.987732, 145.953278 337.548279, 148.567413 336.381775, 150.402740 336.835938, 153.017731 334.451477, 155.742661 332.436401, 158.261703 329.839233, 160.279800 327.772644, 162.157913 326.035889, 164.774429 324.822388, 165.344528 322.363342, 167.929565 323.415039, 170.334030 321.645386, 173.216995 321.299255, 175.880402 319.722656, 178.811401 319.438171, 181.642548 318.041504, 184.641251 318.156860, 188.947311 317.453735, 193.750702 316.406250, 194.618256 314.279419, 196.488098 314.467224, 198.089676 313.184204, 199.395691 315.345520, 203.263458 313.269470, 204.913635 311.647400, 207.820190 312.023315, 210.839050 309.830505, 214.352692 307.721802, 216.984528 304.469299, 219.623962 302.250610, 222.323975 300.238525, 225.219681 298.397949, 228.385757 296.640747, 231.005219 297.188660, 234.241089 295.892822, 236.908768 295.563110, 239.881805 295.246582, 243.966095 294.423157, 247.152802 293.814453, 249.989273 293.708923, 252.497864 292.321777, 254.314835 292.935669, 256.823242 293.187744, 262.336700 293.055481, 267.787018 293.512451, 271.800201 294.532410, 278.843536 293.547058, 283.723877 294.158447, 291.190582 293.760742, 296.804199 294.176758, 305.576721 292.246338, 308.526947 290.627625, 311.573486 289.142944, 319.311951 282.484741, 325.904846 275.306885, 331.580750 267.511841, 336.712708 259.958130, 338.347168 254.171753, 339.887024 249.702515, 341.238617 244.079407, 341.616241 239.114990, 344.007202 234.977051, 344.268127 231.355408, 346.347656 227.500732, 343.689850 226.853027, 344.649750 224.664429, 348.931274 223.104919, 348.049255 220.207581, 348.489471 218.354919, 349.145813 216.144470, 349.585236 212.016418, 347.990204 208.617310, 347.459412 205.776062, 347.530334 202.570984, 347.600983 199.265991, 349.948120 196.772339, 350.516968 193.873779, 351.559662 190.224426, 352.799988 185.685486, 354.586243 181.792419, 357.815063 177.053284, 360.470947 173.089600, 363.776520 169.458984, 364.423279 167.278198, 366.703613 167.078796, 367.627075 165.546631, 370.689301 166.120911, 370.390045 163.801758, 373.368073 163.093201, 373.141846 160.573853, 375.530609 159.987854, 376.857971 157.169006, 377.826630 155.393982, 378.501129 154.011475, 378.125702 151.917297, 377.886444 149.438782, 377.932220 146.877991, 378.438263 143.881470, 376.999573 140.825439, 376.966766 138.964905, 377.900421 137.670288, 378.054352 134.826050, 378.535248 131.386108, 379.790802 127.520203, 381.686554 123.606628, 382.821716 120.338196, 384.572693 118.310608, 385.147308 115.720520, 387.314270 112.520325, 390.390106 108.760315, 391.782227 104.560486, 393.753204 102.196899, 396.003876 101.968201, 397.399109 100.663696, 397.928741 98.191711, 397.524292 95.224304, 400.141235 93.608337, 402.517365 92.403625, 401.287903 91.301208, 402.791473 90.048523, 404.795746 89.217102, 404.887421 87.944641, 407.897186 87.540955, 405.930481 86.061096, 404.263550 80.753540, 406.639130 79.112000, 408.022339 76.708008, 409.491577 74.664917, 410.643829 72.632629, 411.865417 70.235107, 412.736023 67.136658, 411.836029 63.733154, 411.340698 61.688232, 413.350739 61.413452, 413.701874 58.556396, 413.331299 56.238586, 413.578308 54.193115, 415.684967 54.286316, 417.133179 51.721802, 417.500366 49.188965, 418.787537 46.372620, 420.675049 43.775879, 419.497498 41.567749, 420.637451 39.203186, 421.968323 36.416687, 423.339874 33.416321, 424.675110 30.330322, 425.959198 27.199951, 427.460663 24.187073, 429.566193 21.265381, 431.243561 18.068970, 431.514374 14.542419, 432.101105 11.876892, 431.697662 9.637634, 432.058319 6.777588, 430.737183 5.232483, 432.417480 3.409119, 435.434204 3.518677, 436.520905 2.137146, 437.784882 3.246826, 439.309204 5.641846, 441.751862 6.690918, 442.851807 8.087036, 444.119324 8.936890, 444.572723 11.396301, 446.502228 10.859680, 446.878662 13.248657, 449.283966 15.682556, 452.742554 14.708374, 455.994507 14.496216, 458.645447 13.914185, 460.713562 13.247986, 462.490051 14.690002, 464.356903 16.970154, 466.524658 15.479492, 468.698517 13.574219, 471.110168 11.911316, 473.480347 10.275269, 475.349457 11.070862, 477.842133 10.446716, 480.973450 9.947449, 483.711334 9.749756, 485.449921 10.410950, 487.262817 10.635010, 489.575378 11.467041, 492.633087 12.496521, 494.878204 12.359253, 498.541290 14.889771, 500.338867 14.591675, 502.198059 13.629395, 504.078339 13.201477, 506.134155 12.485229, 508.246429 12.360168, 510.566864 11.859985, 510.461090 14.035828, 512.323975 15.436890, 513.716370 16.672791, 513.346069 18.588684, 514.633118 18.702881, 514.245728 20.698303, 515.432678 20.829651, 516.818420 20.486755, 516.469604 21.991028, 518.341431 23.785645, 520.087463 23.806885, 521.526611 24.125427, 522.901855 24.099731, 522.888062 27.183655, 525.755127 31.609802, 528.805603 30.137268, 531.351013 32.183044, 533.087952 35.576477, 533.629456 38.832886, 535.710938 38.371704, 537.259583 38.425598, 537.640137 39.159546, 536.497803 41.642456, 536.526062 45.293518, 538.518982 48.246765, 541.897461 47.387878, 545.077087 43.107117, 547.586487 38.443787, 547.397217 36.136963, 548.563477 36.091919, 551.003845 35.388306, 554.146851 33.421204, 555.298035 31.169067, 557.418945 29.707397, 559.285461 28.348877, 561.417175 27.333740, 564.223267 25.301453, 566.319092 25.789307, 567.910461 26.071167, 568.948364 25.136353, 569.208069 26.277527, 570.831665 26.293213, 572.525574 26.793518, 572.745300 28.141907, 572.393250 30.157654, 571.326233 33.643738, 572.960327 35.004028, 574.812073 35.220947, 574.044861 36.402466, 575.181824 37.876099, 576.907104 37.886230, 576.297791 39.527649, 577.569702 41.428040, 578.634949 43.568115, 578.816101 45.347412, 579.815186 47.036316, 581.056824 49.544495, 582.121399 52.018982, 582.958740 54.535950, 584.218994 57.108704, 585.523132 60.049500, 587.624817 61.293701, 587.399231 64.214905, 588.954407 67.911438, 590.501587 71.039795, 593.285828 71.327881, 591.586121 73.758972, 592.816040 76.983337, 593.625793 81.255066, 596.769348 85.286011, 598.509094 92.973389, 599.043396 99.644653, 598.420471 105.317993, 599.282898 107.374023, 599.685547 109.960938, 600.347046 114.010559, 599.934448 118.595215, 600.303284 122.630066, 600.373718 126.405151, 600.218018 129.782349, 601.776367 131.365845, 602.632324 134.135925, 603.971924 135.105408, 603.540100 135.961060, 603.773254 137.619995, 602.798828 139.889404, 604.398132 141.548828, 604.135986 144.224304, 603.644226 146.455322, 602.832031 148.737000, 604.487244 152.053406, 606.623047 153.010498, 605.823425 155.466980, 607.923462 156.248474, 607.373352 159.328186, 609.253723 159.871643, 610.303711 160.229248, 609.019104 163.006470, 611.400696 163.857910, 613.186707 164.808594, 613.513794 167.336487, 613.233826 170.618469, 616.423279 172.268921, 619.081848 172.908142, 620.904236 175.928894, 624.128174 177.441467, 626.950928 177.516418, 627.252869 179.493225, 630.838684 182.070557, 633.409546 182.907532, 633.582764 185.329468, 636.346130 188.604492, 639.650940 188.295166, 641.849182 190.422302, 642.439636 192.546265, 644.887817 195.199097, 647.368958 199.107666, 651.128601 202.989502, 654.676208 206.294312, 658.418823 208.994629, 660.223572 211.831787, 664.859131 213.759399, 670.210327 217.847717, 675.350647 219.032776, 678.726990 221.769287, 682.920715 225.607483, 691.915649 227.966675, 695.466553 231.378174, 706.645813 232.624573, 715.411133 231.568237, 721.607849 229.434448, 730.569641 228.065857, 736.469604 225.476196, 743.382385 224.612610, 749.524048 222.854614, 755.525574 221.230957, 760.962280 219.479309, 765.776794 218.305847, 770.213074 217.245544, 773.054626 215.382324, 776.291992 215.424133, 778.975403 212.802795, 782.364807 212.468628, 786.408142 212.117126, 788.723206 209.424255, 791.274475 206.942688, 794.885681 207.029419, 795.974609 205.145874, 799.180176 206.634766, 799.693298 203.691528, 801.992004 204.016418, 803.165405 202.153748, 805.489685 203.214050, 806.359314 200.697998, 806.979736 199.423767, 808.739624 201.068115, 810.045288 198.827332, 810.712158 197.750854, 812.357361 199.353394, 813.818054 197.287659, 816.045715 198.334839, 819.474792 197.348022, 821.966675 198.692322, 823.663025 198.759888, 824.588867 198.331909, 824.162598 200.770020, 827.134399 200.993774, 829.774780 201.178833, 832.431030 201.188782, 834.166870 203.447693, 836.203613 206.739380, 839.996826 208.816406, 843.188660 212.053162, 846.792908 215.234680, 850.737427 219.144226, 855.107788 222.637207, 859.350037 225.223389, 861.991150 224.021973, 865.782898 224.936768, 869.402893 226.417725, 873.266479 228.708252, 877.300720 231.060364, 880.912354 233.985779, 884.473572 236.551270, 887.933289 239.154907, 890.635071 241.326477, 893.102234 243.497681, 895.754211 245.563293, 898.265198 247.919373, 901.038818 250.496460, 904.107849 252.205261, 905.840515 255.080933, 908.451599 257.328735, 910.234863 257.485718, 910.733765 259.272705, 913.080322 260.882507, 914.581238 260.528870, 915.775452 262.522217, 917.709290 264.668396, 919.625610 267.254150, 922.843140 269.597046, 925.814880 270.689209, 929.643799 272.220154, 933.202087 274.240112, 933.681152 272.989746, 934.147034 273.728943, 935.496887 274.308533, 937.264221 276.061340, 941.274414 276.733887, 944.841614 277.637634, 950.094788 277.632874, 954.636719 279.154724, 960.763306 278.478821, 969.485779 278.237122, 976.562988 277.976196, 981.616638 279.655396, 988.008301 282.466675, 994.489929 286.590149, 1000.975464 292.429688, 1004.386108 296.055908, 1006.300293 300.452148, 1007.879822 304.449097, 1007.281677 308.939209, 1011.063538 316.527649, 1015.192749 319.814941, 1019.070374 321.372498, 1024.523560 324.417664, 1030.269775 327.312012, 1037.375732 330.346802, 1043.942261 332.645264, 1048.692383 334.322693, 1053.466431 335.667725, 1054.614746 335.040039, 1054.966187 335.481628, 1056.408447 337.175415, 1058.649658 338.902344, 1060.040771 340.090271, 1061.309692 341.233337, 1061.925049 340.419434, 1062.482544 342.128967, 1063.980103 343.295227, 1065.210571 342.560913, 1065.707520 344.162659, 1068.111938 345.047180, 1070.494263 346.262756, 1071.933350 345.214539, 1073.028320 346.787109, 1075.494629 347.165161, 1077.934570 344.992493, 1080.183350 344.298889, 1081.945312 343.379761, 1085.160767 343.225037, 1087.087769 341.187439, 1089.101685 341.182800, 1095.507324 343.291077, 1097.720825 342.032288, 1100.123169 343.469849, 1102.614868 344.712158, 1105.208374 346.322449, 1108.137695 344.786011, 1111.180786 343.875427, 1114.073486 343.413208, 1116.121216 343.294983, 1118.538574 343.562073, 1122.295898 342.769714, 1125.316284 341.123474, 1128.096680 339.228882, 1130.352295 340.951416, 1133.120239 339.337708, 1135.823608 337.761292, 1138.170532 336.077454, 1140.110352 334.309143, 1140.873291 332.812500, 1141.396240 333.515442, 1142.609131 333.845215, 1144.234131 335.129944, 1146.527588 336.010498, 1148.819824 337.722778, 1152.022583 337.930298, 1155.552490 337.900330, 1157.998901 335.984863, 1159.558228 334.230347, 1160.063965 338.634094, 1157.879761 339.804443, 1158.145752 341.616943, 1156.254395 341.502991, 1154.615356 343.916321, 1152.787354 346.058594, 1153.631348 348.354614, 1151.484863 348.214111, 1151.000732 350.177734, 1149.892090 351.815308, 1148.723511 353.484680, 1147.236206 354.727783, 1144.849365 356.800415, 1144.876465 359.524414, 1145.891602 361.440491, 1145.609741 363.464233, 1144.845581 364.951416, 1144.235474 367.890259, 1141.841919 370.667847, 1140.076782 372.939331, 1140.137817 374.567200, 1137.743408 374.925110, 1138.020508 376.846802, 1136.204956 377.241028, 1135.735352 379.450256, 1134.782104 381.786377, 1135.886230 385.068359, 1134.885376 387.481140, 1136.217285 393.074646, 1134.873291 394.590088, 1135.231201 397.673889, 1135.544678 401.014404, 1136.296875 401.689575, 1134.096191 407.583862, 1133.515259 409.978516, 1132.703247 412.868286, 1131.567749 416.564880, 1129.597656 420.680359, 1126.942749 424.461365, 1124.277100 428.649536, 1121.330444 431.924622, 1118.230713 434.526245, 1115.299561 436.773987, 1111.794678 438.344177, 1108.425659 439.314392, 1109.199951 440.897888, 1109.165283 441.902039, 1108.769287 442.813049, 1108.070312 443.375854, 1106.312622 444.471558, 1104.754272 445.857971, 1105.716064 448.855347, 1105.220215 452.109619, 1104.934937 455.191162, 1104.518066 458.754395, 1104.873779 461.627014, 1104.922485 463.810242, 1105.257446 466.917969, 1106.949829 470.786743, 1108.468140 473.952637, 1109.293091 479.652710, 1109.972046 482.793945, 1110.776001 487.409241, 1112.433105 488.206360, 1112.422852 490.997009, 1113.769897 496.783508, 1114.370605 501.912964, 1114.894897 504.635742, 1114.995361 508.303955, 1115.159790 514.764893, 1115.597168 520.653564, 1116.199829 526.801208, 1116.986206 530.226257, 1118.065674 533.156372, 1118.815796 534.423462, 1118.753052 536.642334, 1119.629883 539.473389, 1121.370117 543.068848, 1123.030396 546.741516, 1124.928467 549.868286, 1126.432373 550.722412, 1126.528076 551.867432, 1127.497314 553.637329, 1126.726685 554.234375, 1128.055420 556.747253, 1127.621704 558.648193, 1129.382935 563.578674, 1130.719116 567.749329, 1131.017578 572.424255, 1131.924561 578.091064, 1132.511475 584.590027, 1133.814453 588.883179, 1134.131470 594.841309, 1134.221069 600.161316, 1134.384644 605.982666, 1134.479858 610.498901, 1134.331421 615.546448, 1133.655640 620.530884, 1133.880615 623.359375, 1134.136841 625.331055, 1133.646118 628.531372, 1133.330688 632.885620, 1133.352905 636.194458, 1133.234741 639.305420, 1131.985107 642.793518, 1131.500366 650.567871, 1131.039307 655.733459, 1129.682007 660.768799, 1130.057251 663.547485, 1129.107178 664.929626, 1128.554321 669.611023, 1128.147339 675.098083, 1126.927612 680.271606, 1125.906006 686.366882, 1124.776245 691.508179, 1122.782349 696.739502, 1123.826782 700.369324, 1122.493896 704.465515, 1121.052368 707.936157, 1120.586548 712.170654, 1120.553589 716.017334, 1121.040161 720.451660, 1121.213501 724.592102, 1121.309570 728.425903, 1122.327393 731.941040, 1122.918579 736.024353, 1123.806396 738.185425, 1121.588745 740.160522, 1119.481934 743.671387, 1117.874634 749.124146, 1119.428467 757.460449, 1125.528076 769.782593, 1130.859619 780.937683, 1129.445679 794.076050, 1121.687134 812.161072, 1111.106323 832.672180, 1100.045166 856.174683Z M434.596100 0.000000 L431.551514 2.429749, 432.417480 3.409119, 434.596100 0.000000Z "/>
    </clipPath>
    <filter id="dropshadow">
      <feGaussianBlur in="SourceAlpha" stdDeviation="2"/>
      <feMerge>
        <feMergeNode/>
        <feMergeNode in="SourceGraphic"/>
      </feMerge>
    </filter>
  </defs>
  <g inkscape:label="rois" inkscape:groupmode="layer" id="rois" transform="translate(0,0)" style="display:inline;" class="display_layer">
    <g inkscape:label="shapes" inkscape:groupmode="layer" id="rois_shapes" transform="translate(0,0)" style="display:inline;" clip-path="url(#edgeclip)"/>
    <g inkscape:label="labels" inkscape:groupmode="layer" id="rois_labels" transform="translate(0,0)" style="display:inline;">
    </g>
  </g>
  <svg:g id="sulci" style="display:inline;" inkscape:label="sulci" inkscape:groupmode="layer" class="display_layer">
    <svg:g id="sulci_shapes" style="display:inline;" inkscape:label="shapes" inkscape:groupmode="layer" clip-path="url(#edgeclip)"/>
    <svg:g id="sulci_labels" style="display:inline;" inkscape:label="labels" inkscape:groupmode="layer"/>
  </svg:g>
  <svg:g id="cutouts" style="display:inline;" inkscape:label="cutouts" inkscape:groupmode="layer" class="display_layer">
    <svg:g id="cutouts_shapes" style="display:inline;" inkscape:label="shapes" inkscape:groupmode="layer" clip-path="url(#edgeclip)"/>
    <svg:g id="cutouts_labels" style="display:inline;" inkscape:label="labels" inkscape:groupmode="layer"/>
  </svg:g>
  <svg:g id="display" style="display:inline;" inkscape:label="display" inkscape:groupmode="layer" class="display_layer">
    <svg:g id="display_shapes" style="display:inline;" inkscape:label="shapes" inkscape:groupmode="layer" clip-path="url(#edgeclip)"/>
    <svg:g id="display_labels" style="display:inline;" inkscape:label="labels" inkscape:groupmode="layer"/>
  </svg:g>
</svg>
